<svg width="166" height="165" viewBox="0 0 166 165" fill="none" xmlns="http://www.w3.org/2000/svg">
<path d="M81.7915 8.21777H84.2085L85.981 8.45947L87.6729 8.94287L88.8813 9.42627L90.4927 10.3125L92.0234 11.4404L93.2319 12.5684L93.957 13.374L94.9238 14.7437L95.5684 15.8716L96.0518 16.8384L96.6157 18.3691L97.0186 20.061L97.1797 21.189V23.8477L96.8574 25.7812L96.5352 26.9092V27.2314L101.047 29.8096L102.98 30.9375L105.236 32.2266L106.767 33.1128L108.701 34.2407L110.393 35.2075L112.326 36.3354L114.34 37.4634L115.549 38.1885L117.805 39.4775L121.994 41.8945L124.25 43.1836L124.572 43.103L125.539 42.0557L126.667 41.1694L127.473 40.6055L128.601 39.9609L129.97 39.3164L131.179 38.9136L132.548 38.5913L133.596 38.4302H136.657L138.107 38.6719L139.799 39.1553L141.169 39.7192L142.377 40.3638L143.344 41.0083L144.15 41.6528L144.956 42.3779L145.842 43.2642L146.647 44.3115L147.453 45.6006L148.259 47.2925L148.742 48.7427L149.064 50.2734L149.226 51.9653V53.0127L149.064 54.7046L148.581 56.7188L147.937 58.4106L147.131 59.9414L146.486 60.8276L145.681 61.875L144.392 63.1641L143.022 64.2114L141.491 65.0977L139.96 65.7422L138.349 66.2256L137.785 66.3867L137.705 66.9507V98.5327L138.188 98.6938L139.88 99.1772L141.572 99.9023L143.183 100.869L144.472 101.917L145.761 103.206L146.567 104.253L147.453 105.703L148.098 107.073L148.581 108.523L148.984 110.537L149.064 111.584V112.954L148.903 114.646L148.581 116.177L148.017 117.869L147.373 119.238L146.728 120.286L146.083 121.172L145.117 122.3L144.311 123.105L142.941 124.153L141.411 125.039L139.96 125.684L138.43 126.167L136.738 126.489L136.013 126.57H133.837L132.146 126.328L130.292 125.845L128.762 125.2L127.553 124.556L126.425 123.75L125.297 122.783L124.492 121.978L124.411 121.816L123.847 121.897L119.658 124.314L117.724 125.442L115.468 126.731L113.535 127.859L111.682 128.906L110.312 129.712L108.056 131.001L106.123 132.129L102.175 134.385L100.241 135.513L98.1465 136.721L96.4546 137.688H96.2935L96.7769 139.622L97.0186 141.152L97.0991 142.039V143.086L96.8574 145.181L96.4546 146.711L95.8906 148.242L95.0044 149.934L94.2793 150.981L93.5542 151.868L92.7485 152.754L92.104 153.318L91.0566 154.124L89.8481 154.849L88.5591 155.493L86.9478 156.057L85.5781 156.379L84.6113 156.541L83.564 156.621H82.2749L80.7441 156.46L78.9717 156.057L77.4409 155.493L76.0713 154.849L74.8628 154.043L73.8154 153.237L72.2041 151.626L71.3984 150.579L70.6733 149.37L70.0288 148.081L69.4648 146.55L69.062 144.778L68.9009 143.328V141.716L69.2231 139.541L69.626 137.93L69.5454 137.688L68.0952 136.882L51.9014 127.537L50.2095 126.57L46.02 124.153L44.0864 123.025L41.8306 121.736L41.5083 121.816L41.3472 122.139L40.3804 123.105L39.2524 123.992L38.0439 124.717L36.7549 125.361L35.5464 125.845L33.6934 126.328L32.0015 126.57H29.8262L28.2148 126.328L26.6841 125.925L25.2339 125.361L23.9448 124.717L22.978 124.072L21.9307 123.267L20.7222 122.139L19.7554 121.011L18.9497 119.802L18.0635 118.11L17.4995 116.58L17.0967 114.807L16.9355 113.518V111.504L17.1772 109.731L17.6606 107.959L18.3052 106.348L19.0303 105.059L19.9165 103.77L20.6416 102.964L21.2056 102.319L22.0112 101.594L23.2197 100.708L24.4282 99.9829L25.7979 99.3384L27.248 98.855L28.4565 98.6133V66.145L27.812 66.0645L26.1201 65.5811L24.5088 64.856L23.0586 63.9697L22.0918 63.2446L21.125 62.3584L20.4805 61.7139V61.5527H20.3193L19.3525 60.2637L18.6274 59.0552L17.9023 57.5244L17.4189 56.0742L17.0967 54.624L16.9355 53.335V51.3208L17.1772 49.5483L17.5801 48.0176L18.2246 46.3257L19.0303 44.8755L19.9971 43.5059L20.7222 42.7002L21.125 42.2168L21.7695 41.6528L22.978 40.686L24.5894 39.7192L26.2812 38.9941L27.9731 38.5107L29.5039 38.269H32.5654L34.499 38.5913L36.4326 39.2358L37.8022 39.8804L39.0913 40.686L40.3804 41.7334L41.6694 43.0225L42.0723 42.9419L44.0059 41.814L45.6978 40.8472L47.6313 39.7192L49.7261 38.5107L51.9819 37.2217L53.9155 36.0938L55.0435 35.4492L56.9771 34.3213L58.9912 33.1934L60.9248 32.0654L67.209 28.4399L68.9009 27.4731L69.5454 27.0703H69.7065L69.2231 25.2173L68.9814 23.8477L68.9009 23.1226V21.4307L69.1426 19.5776L69.626 17.7246L70.3511 16.0327L71.1567 14.5825L72.1235 13.2935L73.0098 12.3267L73.7349 11.6016L74.7822 10.7959L75.9102 10.0708L77.2798 9.3457L79.0522 8.70117L80.5024 8.37891L81.7915 8.21777ZM82.3555 13.2129L80.8247 13.4546L79.7773 13.7769L78.8105 14.1797L77.6826 14.9048L76.6353 15.791L75.9102 16.5967L75.3462 17.4023L74.6211 18.772L74.2988 19.6582L73.9766 21.3501V23.2837L74.2988 24.8145L74.7822 26.0229L75.4268 27.2314L76.4741 28.5205L77.0381 29.0845L78.166 29.8901L79.6968 30.6958L80.9858 31.0986L82.0332 31.2598H84.0474L85.3364 31.0181L86.8672 30.4541L87.9951 29.8096L88.9619 29.0845L89.9287 28.1177V27.9565H90.0898L90.8955 26.748L91.4595 25.5396L91.7817 24.4116L92.0234 22.9614V21.5918L91.7817 20.061L91.2983 18.6108L90.5732 17.2412L89.9287 16.4355L89.2036 15.6299L88.2368 14.8242L86.9478 14.0991L85.7393 13.6157L84.2891 13.2935L83.564 13.2129H82.3555ZM72.1235 31.582L70.7539 32.3877L68.498 33.6768L66.4033 34.8853L64.1475 36.1743L62.2139 37.3022L58.0244 39.7192L55.7686 41.0083L53.835 42.1362L51.5791 43.4253L45.2949 47.0508L44.3281 47.6147L44.4087 48.2593L44.8115 49.9512L44.9727 51.2402V53.7378L44.731 55.4297L44.2476 57.2021L43.603 58.6523L42.8779 60.022L42.0723 61.1499L41.186 62.1973L40.2998 63.0835L39.2524 63.8892L37.8022 64.7754L36.2715 65.5005L34.5796 66.0645L33.5322 66.3867V98.7744L34.0962 98.9355L35.5464 99.3384L37.0771 99.9829L38.4468 100.708L39.5747 101.514L40.7026 102.48L41.5083 103.286L42.5557 104.656L43.2002 105.703L43.8447 106.992L44.4087 108.523L44.8115 110.134L44.9727 111.423V113.84L44.731 115.532L44.3281 117.144V117.546L45.9395 118.433L47.873 119.561L49.9678 120.769L52.2236 122.058L55.8491 124.153L57.7827 125.281L62.2944 127.859L63.6641 128.665L65.9199 129.954L69.5454 132.048L71.8013 133.337L72.2847 133.579L73.0098 132.854L73.332 132.451L74.2183 131.726L75.3462 130.92L76.6353 130.195L78.0854 129.551L80.0996 128.987L81.6304 128.745H84.3696L86.3838 129.067L87.9146 129.551L89.2036 130.115L90.4121 130.759L91.7817 131.726L92.9902 132.854L93.6348 133.499L94.0376 133.418L95.4878 132.612L97.4214 131.484L99.6772 130.195L101.047 129.39L103.303 128.101L106.928 126.006L117.402 119.963L118.53 119.319L120.463 118.191L121.591 117.546L121.672 117.224L121.188 115.291L121.027 114.243L120.947 113.276V112.148L121.108 110.537L121.43 109.006L121.994 107.314L122.8 105.623L123.605 104.414L124.492 103.286L125.861 101.917L127.15 100.95L128.681 100.063L130.212 99.4189L131.582 99.0161L132.307 98.855L132.468 98.6133V66.3867L130.131 65.6616L128.439 64.9365L127.231 64.2114L125.942 63.2446L124.895 62.2778L124.169 61.4722L123.283 60.2637L122.316 58.5718L121.672 56.9604L121.188 55.1074L121.027 54.0601L120.947 53.0127V51.9653L121.188 49.8706L121.591 48.2593L121.672 47.6953L120.947 47.2119L112.568 42.3779L110.312 41.0889L108.378 39.9609L106.123 38.6719L104.189 37.5439L101.933 36.2549L99.9995 35.127L95.8101 32.71L93.8765 31.582L93.5542 31.6626L92.9902 32.3071L92.3457 32.9517L91.2983 33.7573L90.0093 34.563L88.7202 35.2075L87.5117 35.6909L85.5781 36.1743L84.5308 36.3354L83.564 36.416H82.2749L80.1802 36.1743L78.4077 35.6909L76.7964 35.0464L75.5073 34.3213L74.3794 33.5156L73.2515 32.5488L72.2847 31.582H72.1235ZM134.401 43.2642L132.79 43.5059L131.42 43.9893L130.212 44.6338L129.245 45.3589L128.439 46.084L127.714 46.9702L127.07 48.0176L126.506 49.3066L126.184 50.5957L126.103 51.1597V53.1738L126.345 54.5435L126.828 55.9131L127.392 57.041L128.198 58.1689L129.245 59.2163L130.373 60.022L131.662 60.6665L132.871 61.0693L134.079 61.311H136.174L137.705 60.9888L138.913 60.5054L140.122 59.8608L141.169 59.0552L142.055 58.1689L142.78 57.2021L143.425 55.9937L143.908 54.5435L144.15 53.1738V51.4819L143.908 50.1123L143.505 48.8232L142.861 47.5342L142.055 46.4062L141.491 45.7617L140.363 44.8755L139.316 44.231L138.188 43.7476L136.657 43.3447L135.852 43.2642H134.401ZM30.0679 43.4253L28.9399 43.5864L27.812 43.9087L26.5229 44.4727L25.6367 45.0366L24.8311 45.6812L23.8643 46.6479L23.1392 47.6953L22.4946 48.9844L22.0918 50.0317L21.8501 51.4819V53.4961L22.1724 55.0269L22.5752 56.0742L23.1392 57.2021L23.8643 58.1689L24.5894 58.9746L25.6367 59.8608L26.6841 60.5054L28.2954 61.1499L29.4233 61.3916L29.9873 61.4722H31.7598L33.1294 61.2305L34.3379 60.8276L35.7075 60.1025L36.5938 59.458L37.5605 58.5718L38.2856 57.6855L38.9302 56.5576L39.333 55.6714L39.7358 54.2212L39.897 52.8516V51.8848L39.6553 50.354L39.2524 49.0649L38.6079 47.7759L37.9634 46.8091L37.0771 45.8423L36.1909 45.1172L35.1436 44.4727L34.0962 43.9893L33.1294 43.667L31.6792 43.4253H30.0679ZM29.665 103.689L28.2148 104.011L27.1675 104.414L25.959 105.059L25.1533 105.703L24.3477 106.428L23.7031 107.153L22.978 108.281L22.4141 109.409L22.0112 110.779L21.8501 111.746V113.76L22.0918 115.049L22.6558 116.58L23.3809 117.869L24.106 118.755L24.9922 119.641L26.0396 120.366L27.4092 121.091L28.7788 121.494L30.4707 121.736H31.2764L32.9683 121.494L34.4185 121.011L35.7881 120.286L36.7549 119.561L37.3188 119.077L37.8828 118.433L38.6079 117.385L39.2524 116.096L39.6553 114.807L39.8164 114.082L39.897 113.115V112.068L39.6553 110.537L39.1719 109.087L38.4468 107.717L37.8022 106.831L37.0771 106.025L36.0298 105.22L34.9019 104.575L33.7739 104.092L32.5654 103.77L32.0015 103.689H29.665ZM133.918 103.689L132.226 104.092L130.776 104.736L129.809 105.381L128.842 106.187V106.348L128.52 106.509L127.634 107.637L126.909 108.926L126.506 109.973L126.184 111.262L126.103 111.907V113.518L126.345 114.888L126.828 116.338L127.473 117.546L128.117 118.433L129.084 119.48L130.292 120.366L131.501 121.011L132.629 121.414L133.918 121.655L134.724 121.736H135.61L137.221 121.494L138.43 121.091L139.719 120.447L140.766 119.722L141.733 118.835L142.619 117.788L143.344 116.499L143.828 115.21L144.15 113.518V111.907L143.908 110.457L143.425 109.006L142.7 107.637L142.055 106.831L141.25 105.945L140.202 105.139L138.913 104.414L137.543 103.931L136.335 103.689H133.918ZM82.5166 133.66L81.2275 133.821L80.019 134.143L78.3271 134.949L77.3604 135.674L76.5547 136.399L75.8296 137.205L75.0239 138.413L74.3794 139.944L74.0571 141.313L73.9766 141.797V143.73L74.2988 145.261L74.7017 146.389L75.4268 147.759L76.1519 148.645L76.877 149.451L78.0854 150.337L79.0522 150.901L80.3413 151.384L81.9526 151.707H84.0474L85.6587 151.384L87.0283 150.82L88.1562 150.176L89.0425 149.451L90.0898 148.403L90.9761 147.034L91.6206 145.503L91.9429 144.133L92.0234 143.408V142.119L91.7817 140.588L91.2983 139.138L90.5732 137.769L89.687 136.641L88.8813 135.835L87.7534 135.029L86.3838 134.304L85.0947 133.901L83.564 133.66H82.5166Z" fill="url(#paint0_linear_1_117)"/>
<path d="M80.4219 45.0366H85.417L87.9146 45.2783L90.4121 45.6812L92.7485 46.2451L94.9238 46.8896L97.2603 47.7759L99.1938 48.6621L100.483 49.3066L102.336 50.354L103.867 51.3208L105.317 52.3682L106.364 53.1738L107.492 54.1406L108.298 54.8657L108.942 55.4297L110.554 57.041L111.118 57.6855L112.084 58.8135L112.89 59.8608L113.938 61.311L114.985 62.9224L115.952 64.6143L116.918 66.4673L117.805 68.4814L118.691 70.8984L119.497 73.7988L120.061 76.6187L120.302 78.4717L120.463 80.7275V84.2725L120.302 86.5283L119.899 89.2676L119.416 91.5234L118.771 93.7793L118.046 95.874L117.241 97.8076L116.113 100.144L114.985 102.078L113.938 103.689L112.89 105.139L111.843 106.428L110.393 108.12H110.231L110.07 108.442L108.781 109.731H108.62V109.893L107.976 110.457L107.17 111.182L106.042 112.068L104.753 113.035L103.303 114.001L101.853 114.888L100.563 115.613L99.1938 116.338L97.1797 117.224L95.0044 118.03L93.2319 118.594L90.4927 119.238L88.0757 119.641L85.9004 119.883L84.7725 119.963H81.147L78.3271 119.722L75.4268 119.238L73.4126 118.755L71.479 118.191L69.2231 117.385L67.3701 116.58L65.8394 115.854L63.9863 114.807L62.5361 113.921L60.9248 112.793L59.8774 111.987L58.9912 111.262L57.7827 110.215L56.7354 109.248L55.688 108.201L55.124 107.556L54.1572 106.428L53.1099 105.139L52.0625 103.689L51.0151 102.078L49.8066 99.9829L48.8398 98.0493L48.0342 96.1157L47.2285 93.8599L46.584 91.604L46.1006 89.3481L45.7783 87.334L45.5366 84.9976L45.4561 83.064V81.8555L45.6172 78.9551L46.02 76.0547L46.5034 73.7183L47.1479 71.3818L47.9536 69.0454L48.9204 66.7896L49.5649 65.5005L50.4512 63.8086L51.418 62.2778L52.2236 61.0693L53.3516 59.5386L54.0767 58.6523L54.9629 57.605L55.688 56.7993L57.8633 54.624L58.7495 53.8989L59.7969 53.0127L60.8442 52.207L62.4556 51.0791L64.3086 49.9512L66.0811 48.9844L67.9341 48.0981L70.1094 47.2119L72.3652 46.4868L74.7822 45.8423L76.9575 45.4395L79.4551 45.1172L80.4219 45.0366ZM81.5498 50.0317L78.8911 50.2734L76.5547 50.6763L74.2988 51.2402L71.6401 52.1265L69.7871 52.9321L68.2563 53.6572L66.4033 54.7046L64.4697 55.9937L63.4224 56.7993L62.6167 57.4438L61.4888 58.4106L60.6831 59.2163L60.3608 59.458V59.6191H60.1997L59.6357 60.2637L58.5078 61.4722L57.6216 62.6001L56.4937 64.1309L55.3657 65.9033L54.3989 67.6758L53.5127 69.5288L52.8682 71.1401L52.0625 73.5571L51.418 76.2964L51.0957 78.23L50.854 81.2109V83.9502L51.0957 86.77L51.4985 89.1064L51.9819 91.1206L52.6265 93.2153L53.5127 95.4712L54.6406 97.8076L55.9297 99.9829L56.7354 101.111L57.3799 102.078L57.541 101.997L57.6216 99.9829L57.9438 97.8076L58.4272 95.9546L59.0718 94.2627L59.8774 92.6514L60.4414 91.7651L61.0054 90.9595L61.5693 90.2344L62.4556 89.187L63.5835 88.0591L64.3892 87.4146L65.5171 86.6089L67.1284 85.6421L68.498 84.9976L69.3843 84.6753L69.1426 83.9502L68.5786 82.4194L68.1758 80.647L68.0146 79.3579V75.4102L68.2563 73.5571L68.7397 71.7847L69.3843 70.1733L70.0288 68.8843L70.9956 67.4341L71.7207 66.5479L72.7681 65.4199L73.4126 64.856L74.8628 63.8086L76.3936 62.9224L77.9243 62.2778L79.5356 61.7944L80.7441 61.5527L82.3555 61.3916H83.8862L85.5781 61.5527L87.1089 61.875L88.8008 62.439L90.6538 63.3252L92.0234 64.2114L93.1514 65.0977L94.7627 66.709L95.7295 67.998L96.6157 69.5288L97.2603 70.8984L97.7437 72.3486L98.1465 74.2017L98.3076 75.6519V79.1162L98.0659 81.0498L97.6631 82.6611L97.1797 83.9502L96.938 84.4336L97.0186 84.6753L98.3076 85.2393L99.5967 85.8838L101.047 86.77L102.175 87.6562L102.819 88.2202H102.98V88.3813L103.625 88.9453L104.592 89.9927L105.72 91.5234L106.606 92.9736L107.412 94.6655L107.895 96.0352L108.298 97.4854L108.62 99.2578L108.701 100.144L108.781 102.078L109.184 101.675L110.473 99.7412L111.198 98.5327L112.407 96.1963L113.293 94.1016L114.26 91.2012L114.824 88.9453L115.227 86.4478L115.388 84.917L115.468 83.3057V81.5332L115.307 79.0356L114.985 76.6992L114.501 74.4434L113.776 71.9458L112.971 69.7705L112.004 67.6758L111.198 66.145L110.07 64.292L109.023 62.8418L108.137 61.7139L107.17 60.5859L106.445 59.7803L105.075 58.4106L104.189 57.6855L103.464 57.041L102.175 56.0742L100.644 55.0269L99.4355 54.3018L97.9854 53.4961L96.2935 52.6904L94.0376 51.8042L92.2651 51.2402L90.0093 50.6763L88.7202 50.4346L87.0283 50.1929L84.6113 50.0317H81.5498ZM81.8721 66.3867L80.1802 66.709L78.8911 67.1924L77.6826 67.8369L76.877 68.4009L75.8296 69.2871L75.0239 70.1733L74.2988 71.2207L73.6543 72.4292L73.1709 73.7988L72.9292 74.8462L72.7681 76.9409V78.0688L72.9292 79.9219L73.2515 81.2109L73.7349 82.5L74.46 83.7891L75.1851 84.7559L75.9907 85.6421L77.1187 86.5283L78.2466 87.2534L79.7773 87.8979L81.4692 88.3008L82.1943 88.3813H83.8862L85.6587 88.0591L87.1895 87.4951L88.6396 86.6895L89.7676 85.8032L90.8149 84.7559L91.7012 83.5474L92.3457 82.2583L92.7485 81.2109L93.0708 79.7607L93.1514 79.1968V75.6519L92.9097 74.1211L92.4263 72.6709L91.7817 71.3818L91.1372 70.415L90.4121 69.5288L89.8481 68.9648L88.8008 68.1592L87.5923 67.4341L86.4644 66.9507L85.4976 66.6284L84.1279 66.3867H81.8721ZM71.7207 89.0259L70.4316 89.4287L68.9814 90.0732L67.4507 91.04L66.5645 91.7651L66.0005 92.2485L65.4365 92.8931L64.9531 93.457L64.3086 94.3433L63.5835 95.6323L63.1807 96.438L62.6973 97.8076L62.375 99.2578L62.2944 99.9023L62.2139 107.234L62.4556 107.637L63.9863 108.765L64.792 109.329L66.4033 110.376L67.9341 111.262L69.7871 112.148L71.9624 113.035L73.9766 113.679L76.3936 114.243L79.0522 114.646L81.147 114.807H83.9668L86.3032 114.646L88.6396 114.324L90.9761 113.84L93.3931 113.115L95.5684 112.31L97.6631 111.343L99.355 110.457L101.289 109.248L102.739 108.201L103.544 107.556L103.706 107.395V100.386L103.544 99.0161L103.222 97.6465L102.739 96.3574L102.094 95.0684L101.53 94.1016L100.725 93.0542L99.9189 92.168L99.2744 91.604L98.3076 90.8789L97.2603 90.2344L95.9712 89.5898L94.2793 89.0259H93.7959L92.668 89.9927L91.2178 90.9595L89.9287 91.6846L88.4785 92.3291L86.9478 92.8125L85.0142 93.2153L84.3696 93.2959H81.3887L79.4551 92.9736L77.7632 92.4902L76.2324 91.8457L74.8628 91.1206L73.7349 90.3149L72.9292 89.6704L72.2041 89.0259H71.7207Z" fill="url(#paint1_linear_1_117)"/>
<defs>
<linearGradient id="paint0_linear_1_117" x1="83.0806" y1="8.21777" x2="83.0806" y2="156.621" gradientUnits="userSpaceOnUse">
<stop stop-color="#30ADDB"/>
<stop offset="0.5" stop-color="#7175EF"/>
<stop offset="1" stop-color="#9B50FB"/>
</linearGradient>
<linearGradient id="paint1_linear_1_117" x1="82.9597" y1="45.0366" x2="82.9597" y2="119.963" gradientUnits="userSpaceOnUse">
<stop stop-color="#30ADDB"/>
<stop offset="0.5" stop-color="#7175EF"/>
<stop offset="1" stop-color="#9B50FB"/>
</linearGradient>
</defs>
</svg>
